<svg width="31" height="31" viewBox="0 0 31 31" fill="none" xmlns="http://www.w3.org/2000/svg">
<path d="M6.3125 13.7152H21.8788L17.1144 8.10999C16.8916 7.84745 16.7844 7.50898 16.8164 7.16903C16.8484 6.82909 17.017 6.51551 17.285 6.2973C17.553 6.07908 17.8986 5.9741 18.2456 6.00544C18.5927 6.03678 18.9128 6.20188 19.1356 6.46443L25.6981 14.178C25.7423 14.2394 25.7818 14.3038 25.8163 14.3709C25.8163 14.4351 25.8162 14.4737 25.9081 14.538C25.9676 14.6854 25.9988 14.8423 26 15.0008C25.9988 15.1593 25.9676 15.3162 25.9081 15.4636C25.9081 15.5279 25.9081 15.5665 25.8163 15.6307C25.7818 15.6978 25.7423 15.7622 25.6981 15.8236L19.1356 23.5372C19.0122 23.6823 18.8577 23.799 18.683 23.879C18.5083 23.959 18.3178 24.0003 18.125 24C17.8183 24.0006 17.5211 23.896 17.285 23.7043C17.1521 23.5964 17.0422 23.4638 16.9617 23.3143C16.8812 23.1647 16.8316 23.001 16.8157 22.8326C16.7999 22.6643 16.8181 22.4945 16.8693 22.333C16.9206 22.1715 17.0039 22.0215 17.1144 21.8916L21.8788 16.2864H6.3125C5.9644 16.2864 5.63056 16.151 5.38442 15.9099C5.13828 15.6688 5 15.3418 5 15.0008C5 14.6598 5.13828 14.3328 5.38442 14.0917C5.63056 13.8507 5.9644 13.7152 6.3125 13.7152Z" fill="#828282"/>
</svg>
