<svg width="58" height="40" viewBox="0 0 58 40" fill="none" xmlns="http://www.w3.org/2000/svg">
<path d="M34.2058 40H12.7761C9.37554 40 6.55255 37.503 6.00723 34.2257L6.00163 34.1851L2.71778 14.2064H44.2821L40.9983 34.1851C40.4473 37.503 37.6244 40 34.2239 40H34.2048H34.2058L34.2058 40ZM12.8106 37.9366H34.2196C36.6111 37.9366 38.5965 36.1802 38.9795 33.8752L38.9834 33.8467L41.8709 16.2699H5.1292L8.01657 33.8467C8.40364 36.1803 10.3889 37.9366 12.7804 37.9366H12.7951H12.7942H12.8106ZM47 16.2698H0V14.2063H47V16.2698ZM14.7335 19.1999H12.69V15.0317L18.6365 1L20.5144 1.81303L14.7334 15.4444L14.7335 19.1999ZM34.31 19.1999H32.2665V15.4444L26.4834 1.8255L28.3634 1.00005L34.31 15.0319V19.1999ZM24.5217 33.0461H22.4783V23.1619H24.5217V33.0461ZM16.6952 33.0461H14.6517V23.1619H16.6952V33.0461ZM32.3483 33.0461H30.3047V23.1619H32.3482L32.3483 33.0461Z" fill="black"/>
<ellipse cx="47.5" cy="12.5" rx="10.5" ry="10.5" fill="#FF3400"/>
<path d="M45.36 8.446V6.95L49.44 5.93V18H47.995V7.664L45.36 8.446Z" fill="white"/>
</svg>
