<svg width="47" height="39" viewBox="0 0 47 39" fill="none" xmlns="http://www.w3.org/2000/svg">
<path d="M34.2058 39H12.7761C9.37554 39 6.55255 36.503 6.00723 33.2257L6.00163 33.1851L2.71778 13.2064H44.2821L40.9983 33.1851C40.4473 36.503 37.6244 39 34.2239 39H34.2048H34.2058L34.2058 39ZM12.8106 36.9366H34.2196C36.6111 36.9366 38.5965 35.1802 38.9795 32.8752L38.9834 32.8467L41.8709 15.2699H5.1292L8.01657 32.8467C8.40364 35.1803 10.3889 36.9366 12.7804 36.9366H12.7951H12.7942H12.8106ZM47 15.2698H0V13.2063H47V15.2698ZM14.7335 18.1999H12.69V14.0317L18.6365 0L20.5144 0.813034L14.7334 14.4444L14.7335 18.1999ZM34.31 18.1999H32.2665V14.4444L26.4834 0.825502L28.3634 4.63224e-05L34.31 14.0319V18.1999ZM24.5217 32.0461H22.4783V22.1619H24.5217V32.0461ZM16.6952 32.0461H14.6517V22.1619H16.6952V32.0461ZM32.3483 32.0461H30.3047V22.1619H32.3482L32.3483 32.0461Z" fill="black"/>
</svg>
