<svg width="40" height="40" viewBox="0 0 40 40" fill="none" xmlns="http://www.w3.org/2000/svg">
<path d="M21.25 29.9999H26.25V34.9999H21.25V29.9999Z" fill="white"/>
<path d="M30 29.9999H35V34.9999H30V29.9999Z" fill="white"/>
<path d="M21.25 21.2501H26.25V26.2501H21.25V21.2501Z" fill="white"/>
<path d="M30 21.2501H35V26.2501H30V21.2501Z" fill="white"/>
<path d="M35 13.75H27.5V8.75C27.5 6.625 25.875 5 23.75 5H16.25C14.125 5 12.5 6.625 12.5 8.75V13.75H5C4.25 13.75 3.75 14.25 3.75 15V15.25L6.125 30.375C6.25 31.625 7.375 32.5 8.625 32.5H18.75V30H8.625L6.5 16.25H35V13.75ZM15 8.75C15 8 15.5 7.5 16.25 7.5H23.75C24.5 7.5 25 8 25 8.75V13.75H15V8.75Z" fill="white"/>
</svg>
