<svg width="42" height="42" viewBox="0 0 42 42" fill="none" xmlns="http://www.w3.org/2000/svg">
<g filter="url(#filter0_d_85_14638)">
<path d="M21 33C29.2843 33 36 26.2843 36 18C36 9.71573 29.2843 3 21 3C12.7157 3 6 9.71573 6 18C6 26.2843 12.7157 33 21 33Z" fill="#FF3400"/>
</g>
<path d="M28 22.6661C28 23.0197 27.866 23.3588 27.6275 23.6089C27.389 23.859 27.0654 23.9997 26.7279 24H15.2733C15.1061 24 14.9405 23.9655 14.786 23.8985C14.6315 23.8314 14.4912 23.7332 14.3729 23.6093C14.1341 23.3592 14 23.0199 14 22.6661V15.3328C14.0003 14.9793 14.1346 14.6403 14.3734 14.3905C14.6121 14.1406 14.9358 14.0002 15.2733 14.0002H17.8186L19.0907 12H22.9093L24.1814 14.0002H26.7267C27.0644 14.0002 27.3883 14.1407 27.6271 14.3909C27.8659 14.6411 28 14.9803 28 15.3341V22.6661Z" stroke="white" stroke-width="1.2" stroke-linecap="round" stroke-linejoin="round"/>
<path d="M24 18.5C24 18.9945 23.8534 19.4778 23.5787 19.8889C23.304 20.3 22.9135 20.6205 22.4567 20.8097C21.9999 20.9989 21.4972 21.0484 21.0123 20.952C20.5273 20.8555 20.0819 20.6174 19.7322 20.2678C19.3826 19.9181 19.1445 19.4727 19.048 18.9877C18.9516 18.5028 19.0011 18.0001 19.1903 17.5433C19.3795 17.0865 19.7 16.696 20.1111 16.4213C20.5222 16.1466 21.0055 16 21.5 16C22.163 16 22.7989 16.2634 23.2678 16.7322C23.7366 17.2011 24 17.837 24 18.5Z" stroke="white" stroke-width="1.2" stroke-linecap="round" stroke-linejoin="round"/>
<defs>
<filter id="filter0_d_85_14638" x="0" y="0" width="42" height="42" filterUnits="userSpaceOnUse" color-interpolation-filters="sRGB">
<feFlood flood-opacity="0" result="BackgroundImageFix"/>
<feColorMatrix in="SourceAlpha" type="matrix" values="0 0 0 0 0 0 0 0 0 0 0 0 0 0 0 0 0 0 127 0" result="hardAlpha"/>
<feOffset dy="3"/>
<feGaussianBlur stdDeviation="3"/>
<feColorMatrix type="matrix" values="0 0 0 0 0.337255 0 0 0 0 0.592157 0 0 0 0 1 0 0 0 0.22 0"/>
<feBlend mode="normal" in2="BackgroundImageFix" result="effect1_dropShadow_85_14638"/>
<feBlend mode="normal" in="SourceGraphic" in2="effect1_dropShadow_85_14638" result="shape"/>
</filter>
</defs>
</svg>
