<svg width="24" height="17" viewBox="0 0 24 17" fill="none" xmlns="http://www.w3.org/2000/svg">
<path d="M23.833 9.04698C23.6229 8.61607 17.6262 2.64031 17.2383 2.47771C17.0928 2.41266 16.8746 2.36388 16.7453 2.36388C16.3897 2.36388 15.8402 2.69722 15.6705 3.0143C15.4765 3.37204 15.4684 4.03872 15.6462 4.31515C15.7189 4.42897 16.6403 5.38835 17.6909 6.45341L19.5982 8.38029L12.6075 8.38029C5.10765 8.38029 5.16422 8.38029 4.35605 7.97378C3.55596 7.55913 2.83668 6.61602 2.63464 5.6973C2.53766 5.26639 2.50533 4.64849 2.50533 2.99804C2.50533 1.00612 2.49725 0.843517 2.3437 0.591478C1.8588 -0.197159 0.646538 -0.197159 0.161634 0.591478C0.00808168 0.843517 -4.3979e-08 1.00612 -1.45619e-07 3.33138C-2.69649e-07 6.16885 0.0323266 6.41276 0.61421 7.63231C1.43855 9.35593 3.1842 10.6242 5.12381 10.8925C5.5279 10.9495 8.18678 10.982 12.6721 10.982L19.5982 10.982L17.602 12.9983C16.5029 14.104 15.5654 15.1122 15.5169 15.2341C15.3068 15.8114 15.5088 16.4862 15.9937 16.8114C16.317 17.0309 16.9393 17.0634 17.2787 16.8846C17.6181 16.7057 23.8249 10.4047 23.9219 10.1446C24.0512 9.79496 24.0189 9.4291 23.833 9.04698Z" fill="white"/>
</svg>
