<svg width="35" height="35" viewBox="0 0 35 35" fill="none" xmlns="http://www.w3.org/2000/svg">
<path d="M17.4999 0C23.0729 0 27.5907 4.44131 27.5907 9.91998C27.5907 15.3986 23.0729 19.84 17.4999 19.84C11.927 19.84 7.40919 15.3986 7.40919 9.91998C7.41538 4.44377 11.9295 0.00615235 17.4993 0H17.4999H17.4999ZM17.4999 17.5436C21.7829 17.5436 25.2549 14.1304 25.2549 9.91991C25.2549 5.70945 21.7829 2.29626 17.4999 2.29626C13.217 2.29626 9.74502 5.70945 9.74502 9.91995C9.75034 14.1283 13.2192 17.5384 17.4994 17.5436H17.4999ZM32.7015 35L32.1253 31.8587C30.8166 24.9951 24.7687 19.8705 17.5033 19.8705H17.4997H17.4999C10.2415 19.8707 4.19773 24.9829 2.8908 31.7445L2.87612 31.8357L2.30151 34.9694L0 34.5622L0.576177 31.4239C2.10285 23.4925 9.09694 17.5749 17.4969 17.5749C25.9058 17.5749 32.9058 23.5051 34.4055 31.3435L34.4222 31.4485L35 34.5929L32.7015 35Z" fill="black"/>
</svg>
